<mxfile host="65bd71144e">
    <diagram id="Wi6ID6cuAUUSFF_uBPji" name="Page-1">
        <mxGraphModel dx="885" dy="1754" grid="1" gridSize="10" guides="1" tooltips="1" connect="1" arrows="1" fold="1" page="1" pageScale="1" pageWidth="850" pageHeight="1100" math="0" shadow="0">
            <root>
                <mxCell id="0"/>
                <mxCell id="1" parent="0"/>
                <mxCell id="2" value="Model:&lt;br&gt;functions&lt;br&gt;(Entity) to manipulate the database" style="rounded=1;whiteSpace=wrap;html=1;" parent="1" vertex="1">
                    <mxGeometry x="80" y="390" width="120" height="120" as="geometry"/>
                </mxCell>
                <mxCell id="3" value="View:&lt;br&gt;(templates)&lt;br&gt;to show the layout" style="rounded=1;whiteSpace=wrap;html=1;" parent="1" vertex="1">
                    <mxGeometry x="410" y="390" width="120" height="120" as="geometry"/>
                </mxCell>
                <mxCell id="4" value="Controller:&lt;br&gt;to bring method from database" style="rounded=1;whiteSpace=wrap;html=1;" parent="1" vertex="1">
                    <mxGeometry x="240" y="240" width="120" height="120" as="geometry"/>
                </mxCell>
                <mxCell id="5" value="MVC: Model&amp;nbsp; View Controller" style="text;html=1;strokeColor=none;fillColor=none;align=center;verticalAlign=middle;whiteSpace=wrap;rounded=0;" vertex="1" parent="1">
                    <mxGeometry x="70" y="-50" width="540" height="30" as="geometry"/>
                </mxCell>
                <mxCell id="6" value="The Boss:&lt;br&gt;functions from&amp;nbsp; model&lt;br&gt;decide which file take care of the layout" style="text;html=1;strokeColor=none;fillColor=none;align=center;verticalAlign=middle;whiteSpace=wrap;rounded=0;" vertex="1" parent="1">
                    <mxGeometry x="70" y="130" width="510" height="60" as="geometry"/>
                </mxCell>
                <mxCell id="8" value="route&amp;nbsp; from controller&lt;br&gt;" style="text;html=1;strokeColor=none;fillColor=none;align=center;verticalAlign=middle;whiteSpace=wrap;rounded=0;" vertex="1" parent="1">
                    <mxGeometry x="150" y="30" width="430" height="30" as="geometry"/>
                </mxCell>
            </root>
        </mxGraphModel>
    </diagram>
</mxfile>